<mxfile host="app.diagrams.net" modified="2023-05-10T07:53:54.171Z" agent="Mozilla/5.0 (Windows NT 10.0; Win64; x64) AppleWebKit/537.36 (KHTML, like Gecko) Chrome/112.0.0.0 Safari/537.36" etag="dboc6wDy3uf9D1h_iQcL" version="21.2.9" type="device">
  <diagram name="Page-1" id="W1Vz9qv1qEuRwuImhzev">
    <mxGraphModel dx="676" dy="330" grid="1" gridSize="10" guides="1" tooltips="1" connect="1" arrows="1" fold="1" page="1" pageScale="1" pageWidth="827" pageHeight="1169" math="0" shadow="0">
      <root>
        <mxCell id="0" />
        <mxCell id="1" parent="0" />
        <mxCell id="6VKBhm5WBku-m2kbMBlK-7" style="edgeStyle=orthogonalEdgeStyle;rounded=0;orthogonalLoop=1;jettySize=auto;html=1;exitX=1;exitY=0.25;exitDx=0;exitDy=0;entryX=0;entryY=0.5;entryDx=0;entryDy=0;" edge="1" parent="1" source="6VKBhm5WBku-m2kbMBlK-1" target="6VKBhm5WBku-m2kbMBlK-2">
          <mxGeometry relative="1" as="geometry" />
        </mxCell>
        <mxCell id="6VKBhm5WBku-m2kbMBlK-10" style="edgeStyle=orthogonalEdgeStyle;rounded=0;orthogonalLoop=1;jettySize=auto;html=1;exitX=1;exitY=0.75;exitDx=0;exitDy=0;entryX=0;entryY=0.5;entryDx=0;entryDy=0;" edge="1" parent="1" source="6VKBhm5WBku-m2kbMBlK-1" target="6VKBhm5WBku-m2kbMBlK-3">
          <mxGeometry relative="1" as="geometry" />
        </mxCell>
        <mxCell id="6VKBhm5WBku-m2kbMBlK-1" value="APS1" style="rounded=1;whiteSpace=wrap;html=1;fillColor=#f8cecc;strokeColor=#b85450;" vertex="1" parent="1">
          <mxGeometry x="160" y="280" width="80" height="40" as="geometry" />
        </mxCell>
        <mxCell id="6VKBhm5WBku-m2kbMBlK-8" style="edgeStyle=orthogonalEdgeStyle;rounded=0;orthogonalLoop=1;jettySize=auto;html=1;exitX=1;exitY=0.5;exitDx=0;exitDy=0;entryX=0;entryY=0.5;entryDx=0;entryDy=0;" edge="1" parent="1" source="6VKBhm5WBku-m2kbMBlK-2" target="6VKBhm5WBku-m2kbMBlK-4">
          <mxGeometry relative="1" as="geometry" />
        </mxCell>
        <mxCell id="6VKBhm5WBku-m2kbMBlK-2" value="ABP1" style="rounded=1;whiteSpace=wrap;html=1;fillColor=#d5e8d4;strokeColor=#82b366;" vertex="1" parent="1">
          <mxGeometry x="280" y="250" width="80" height="40" as="geometry" />
        </mxCell>
        <mxCell id="6VKBhm5WBku-m2kbMBlK-3" value="APB1" style="rounded=1;whiteSpace=wrap;html=1;fillColor=#d5e8d4;strokeColor=#82b366;" vertex="1" parent="1">
          <mxGeometry x="280" y="310" width="80" height="40" as="geometry" />
        </mxCell>
        <mxCell id="6VKBhm5WBku-m2kbMBlK-9" style="edgeStyle=orthogonalEdgeStyle;rounded=0;orthogonalLoop=1;jettySize=auto;html=1;exitX=1;exitY=0.5;exitDx=0;exitDy=0;entryX=0;entryY=0.5;entryDx=0;entryDy=0;" edge="1" parent="1" source="6VKBhm5WBku-m2kbMBlK-4" target="6VKBhm5WBku-m2kbMBlK-5">
          <mxGeometry relative="1" as="geometry" />
        </mxCell>
        <mxCell id="6VKBhm5WBku-m2kbMBlK-4" value="ABP1" style="rounded=1;whiteSpace=wrap;html=1;fillColor=#d5e8d4;strokeColor=#82b366;" vertex="1" parent="1">
          <mxGeometry x="380" y="250" width="80" height="40" as="geometry" />
        </mxCell>
        <mxCell id="6VKBhm5WBku-m2kbMBlK-5" value="ABP1" style="rounded=1;whiteSpace=wrap;html=1;fillColor=#d5e8d4;strokeColor=#82b366;" vertex="1" parent="1">
          <mxGeometry x="480" y="250" width="80" height="40" as="geometry" />
        </mxCell>
      </root>
    </mxGraphModel>
  </diagram>
</mxfile>
